<svg id="svg" version="1.1" xmlns="http://www.w3.org/2000/svg" xmlns:xlink="http://www.w3.org/1999/xlink" width="400" height="403.96039603960395" viewBox="0, 0, 400,403.96039603960395"><g id="svgg"><path id="path0" d="M0.000 201.800 L 0.000 403.600 200.000 403.600 L 400.000 403.600 400.000 201.800 L 400.000 0.000 200.000 0.000 L 0.000 0.000 0.000 201.800 M330.600 1.992 C 333.460 2.192,336.581 2.633,337.536 2.972 C 338.491 3.312,340.874 3.848,342.832 4.163 C 345.152 4.536,346.761 5.026,347.450 5.568 C 348.032 6.026,348.977 6.400,349.550 6.400 C 350.496 6.400,355.098 8.371,357.600 9.848 C 358.150 10.172,359.365 10.783,360.300 11.205 C 361.235 11.626,362.000 12.140,362.000 12.347 C 362.000 12.553,362.556 12.916,363.235 13.152 C 363.915 13.389,365.040 14.046,365.735 14.612 C 366.431 15.179,368.620 16.958,370.600 18.567 C 374.482 21.722,379.350 26.670,381.600 29.748 C 382.370 30.801,383.330 31.964,383.733 32.332 C 384.136 32.699,384.906 33.810,385.443 34.800 C 386.885 37.458,387.992 39.263,388.843 40.346 C 389.259 40.875,389.600 41.720,389.600 42.223 C 389.600 42.727,390.043 43.665,390.585 44.309 C 391.126 44.953,391.763 46.361,391.999 47.440 C 392.235 48.518,392.784 49.891,393.219 50.490 C 393.654 51.090,394.264 52.890,394.575 54.490 C 394.886 56.091,395.445 58.001,395.817 58.734 C 397.657 62.367,397.800 70.519,397.800 172.058 C 397.800 264.581,397.783 266.735,397.038 267.558 L 396.276 268.400 364.000 268.400 L 331.724 268.400 330.962 267.558 C 330.219 266.737,330.198 264.764,330.120 186.658 C 330.031 97.099,330.048 98.614,329.117 97.200 C 328.755 96.650,328.330 95.480,328.173 94.600 C 328.015 93.720,327.372 92.030,326.743 90.844 C 326.114 89.658,325.600 88.471,325.600 88.206 C 325.600 87.941,325.219 87.381,324.754 86.962 C 324.289 86.543,323.746 85.840,323.547 85.400 C 322.831 83.815,320.148 80.827,317.492 78.655 C 316.003 77.438,314.505 76.162,314.163 75.821 C 313.822 75.479,313.300 75.200,313.002 75.200 C 312.705 75.200,311.948 74.768,311.320 74.239 C 310.692 73.711,309.373 73.074,308.389 72.823 C 307.405 72.573,305.610 71.880,304.400 71.284 L 302.200 70.200 199.200 70.200 L 96.200 70.200 93.333 71.500 C 91.756 72.215,90.116 72.800,89.688 72.800 C 89.260 72.800,88.231 73.340,87.400 74.000 C 86.569 74.660,85.655 75.200,85.368 75.200 C 84.755 75.200,80.327 78.888,78.130 81.229 C 77.289 82.126,76.130 83.345,75.556 83.938 C 74.982 84.531,74.371 85.462,74.199 86.008 C 74.026 86.554,73.461 87.557,72.942 88.238 C 72.424 88.919,72.000 89.636,72.000 89.832 C 72.000 90.028,71.563 91.091,71.030 92.194 C 70.496 93.297,69.589 96.450,69.013 99.200 L 67.967 104.200 68.101 202.600 L 68.234 301.000 69.265 305.511 C 69.832 307.992,70.589 310.346,70.948 310.742 C 71.307 311.139,71.600 311.647,71.600 311.871 C 71.600 312.564,74.450 317.721,75.650 319.200 C 77.364 321.313,77.680 321.637,80.124 323.800 C 83.617 326.891,84.915 327.864,86.000 328.203 C 86.550 328.375,87.557 328.939,88.238 329.458 C 88.919 329.976,89.819 330.402,90.238 330.404 C 90.657 330.406,91.963 330.856,93.139 331.404 C 97.338 333.358,125.090 333.490,344.763 332.595 C 401.962 332.362,396.812 332.034,396.783 335.909 C 396.763 338.461,396.368 340.579,395.446 343.063 C 395.107 343.978,394.654 345.815,394.440 347.145 C 394.225 348.476,393.681 350.068,393.230 350.682 C 392.778 351.297,392.225 352.781,392.000 353.979 C 391.775 355.178,391.246 356.528,390.825 356.979 C 390.404 357.431,389.932 358.340,389.776 359.000 C 389.492 360.202,388.533 361.927,386.100 365.612 C 385.385 366.695,384.800 367.671,384.800 367.782 C 384.800 367.893,384.125 368.858,383.300 369.926 C 382.475 370.995,381.266 372.573,380.613 373.434 C 379.960 374.296,377.620 376.777,375.413 378.949 C 370.344 383.938,369.932 384.318,368.704 385.131 C 368.150 385.499,366.651 386.520,365.374 387.400 C 361.722 389.917,360.332 390.769,358.400 391.678 C 357.410 392.144,356.134 392.870,355.564 393.291 C 354.993 393.712,353.766 394.227,352.836 394.436 C 351.906 394.645,350.663 395.156,350.073 395.571 C 349.483 395.986,348.010 396.546,346.800 396.816 C 345.590 397.086,344.072 397.575,343.428 397.901 C 342.783 398.228,340.943 398.658,339.339 398.858 C 337.735 399.057,335.023 399.572,333.312 400.004 C 328.972 401.097,69.346 401.238,64.800 400.149 C 63.370 399.807,60.940 399.349,59.400 399.131 C 57.860 398.914,55.700 398.397,54.600 397.982 C 53.500 397.568,51.700 397.036,50.600 396.800 C 49.500 396.565,48.130 396.031,47.555 395.615 C 46.980 395.198,45.848 394.733,45.041 394.581 C 44.234 394.430,42.938 393.875,42.161 393.348 C 41.384 392.821,40.175 392.128,39.474 391.808 C 37.511 390.912,35.057 389.469,33.767 388.452 C 33.125 387.945,31.610 386.813,30.400 385.935 C 26.697 383.250,25.646 382.333,21.994 378.600 C 18.689 375.221,14.800 370.575,14.800 370.006 C 14.800 369.865,14.485 369.402,14.100 368.975 C 12.875 367.618,10.439 363.693,10.179 362.658 C 10.041 362.108,9.583 361.347,9.162 360.966 C 8.741 360.585,8.209 359.578,7.981 358.728 C 7.752 357.879,7.148 356.569,6.638 355.817 C 6.128 355.066,5.588 353.683,5.437 352.744 C 5.287 351.805,4.804 350.454,4.364 349.741 C 3.923 349.029,3.385 347.310,3.168 345.923 C 2.951 344.535,2.464 342.500,2.087 341.400 C 1.163 338.711,1.005 64.451,1.926 62.000 C 2.215 61.230,2.706 59.179,3.017 57.443 C 3.328 55.707,3.879 53.834,4.241 53.281 C 4.604 52.728,5.155 51.182,5.467 49.846 C 5.779 48.509,6.369 47.052,6.779 46.608 C 7.188 46.164,7.694 45.170,7.904 44.400 C 8.113 43.630,8.760 42.300,9.342 41.444 C 9.924 40.588,10.400 39.657,10.400 39.375 C 10.400 39.092,10.823 38.353,11.339 37.731 C 11.856 37.109,12.531 36.130,12.839 35.556 C 14.822 31.865,15.853 30.634,22.820 23.640 C 29.185 17.252,30.946 15.786,34.827 13.645 C 35.611 13.213,36.489 12.575,36.776 12.229 C 37.063 11.883,37.511 11.600,37.771 11.600 C 38.031 11.600,39.108 11.052,40.165 10.381 C 41.222 9.711,42.652 9.053,43.343 8.919 C 44.034 8.786,45.089 8.271,45.686 7.776 C 46.283 7.280,47.543 6.751,48.486 6.599 C 49.429 6.447,50.920 5.920,51.800 5.428 C 52.704 4.922,54.842 4.319,56.715 4.043 C 58.538 3.774,60.788 3.280,61.715 2.945 C 62.642 2.611,65.380 2.197,67.800 2.027 C 74.100 1.584,324.284 1.550,330.600 1.992 M260.526 116.134 C 263.012 116.288,263.972 116.540,265.217 117.364 C 266.078 117.934,267.102 118.401,267.491 118.402 C 267.881 118.403,268.671 118.718,269.246 119.102 C 269.822 119.486,271.066 120.316,272.012 120.947 C 273.967 122.250,279.600 127.946,279.600 128.619 C 279.600 128.863,280.145 129.886,280.812 130.892 C 281.478 131.898,282.295 133.764,282.627 135.038 C 282.958 136.312,283.448 137.617,283.715 137.939 C 284.557 138.953,284.612 262.615,283.771 264.880 C 283.420 265.826,282.807 267.738,282.410 269.128 C 282.012 270.518,281.342 272.048,280.920 272.528 C 280.498 273.008,279.949 273.881,279.699 274.469 C 278.801 276.584,274.363 281.398,272.376 282.412 C 271.590 282.813,270.719 283.415,270.441 283.750 C 270.163 284.085,269.275 284.577,268.468 284.843 C 267.661 285.109,266.550 285.658,266.000 286.063 C 264.073 287.481,260.023 287.575,200.200 287.585 C 139.834 287.594,135.536 287.495,133.574 286.044 C 133.001 285.621,131.859 285.088,131.035 284.861 C 130.211 284.633,128.933 283.987,128.195 283.424 C 127.457 282.861,126.696 282.400,126.505 282.400 C 126.121 282.400,121.024 277.307,119.498 275.400 C 117.696 273.147,115.570 268.214,115.166 265.350 C 114.953 263.837,114.604 261.970,114.392 261.200 C 113.663 258.566,113.884 144.417,114.624 140.609 C 114.968 138.844,115.427 136.469,115.646 135.331 C 115.865 134.193,116.295 133.054,116.601 132.799 C 116.908 132.544,117.374 131.675,117.637 130.868 C 118.785 127.345,126.743 119.303,129.800 118.577 C 130.460 118.421,131.270 118.070,131.600 117.798 C 133.052 116.600,134.462 116.232,138.400 116.023 C 143.454 115.755,256.070 115.857,260.526 116.134 " stroke="none" fill="#f7f8fa" fill-rule="evenodd"></path><path id="path1" d="M71.541 3.609 C 70.312 4.327,65.017 5.243,60.800 5.467 C 57.264 5.655,56.375 5.841,55.180 6.644 C 54.400 7.168,52.727 7.789,51.464 8.022 C 50.200 8.256,48.519 8.886,47.728 9.423 C 46.936 9.961,46.070 10.400,45.804 10.400 C 45.537 10.400,44.473 10.850,43.438 11.400 C 42.404 11.950,41.306 12.400,40.999 12.400 C 40.692 12.400,39.965 12.842,39.382 13.382 C 38.799 13.922,37.665 14.580,36.862 14.845 C 36.059 15.111,34.916 15.794,34.321 16.364 C 32.997 17.634,32.531 18.023,28.999 20.807 C 25.130 23.858,18.400 30.986,18.400 32.033 C 18.400 32.244,17.953 32.621,17.408 32.869 C 16.862 33.118,16.302 33.699,16.163 34.161 C 16.024 34.622,15.493 35.450,14.984 36.000 C 14.474 36.550,13.937 37.488,13.789 38.084 C 13.642 38.680,13.287 39.362,13.001 39.599 C 12.714 39.837,12.081 41.014,11.594 42.216 C 11.106 43.417,10.553 44.400,10.365 44.400 C 10.176 44.400,9.741 45.368,9.397 46.551 C 9.053 47.734,8.433 49.008,8.019 49.383 C 7.568 49.791,7.158 50.892,6.995 52.132 C 6.845 53.269,6.275 55.010,5.728 56.000 C 4.922 57.457,4.665 58.676,4.380 62.400 C 4.008 67.253,3.187 71.373,2.444 72.116 C 1.681 72.879,1.825 329.300,2.589 330.778 C 3.550 332.638,4.031 335.130,4.367 340.000 C 4.616 343.625,4.868 344.908,5.554 346.053 C 6.032 346.852,6.621 348.652,6.863 350.053 C 7.115 351.517,7.612 352.897,8.032 353.297 C 8.688 353.925,9.592 356.315,9.598 357.438 C 9.599 357.679,9.962 358.203,10.403 358.603 C 10.845 359.003,11.413 360.018,11.665 360.859 C 11.917 361.699,12.455 362.688,12.861 363.056 C 13.268 363.423,13.600 363.888,13.600 364.089 C 13.600 364.289,14.041 365.032,14.580 365.739 C 15.119 366.446,15.705 367.415,15.882 367.893 C 16.456 369.446,25.352 378.919,29.609 382.511 C 30.594 383.343,31.760 384.370,32.200 384.795 C 32.640 385.221,33.810 385.987,34.800 386.498 C 37.265 387.771,38.458 388.484,39.400 389.251 C 39.840 389.609,40.858 390.112,41.661 390.369 C 42.465 390.626,43.599 391.278,44.182 391.818 C 44.765 392.358,45.670 392.800,46.195 392.800 C 47.469 392.800,49.218 393.489,50.200 394.377 C 50.698 394.828,51.971 395.206,53.571 395.378 C 54.984 395.531,56.796 395.990,57.596 396.398 C 60.660 397.961,63.869 397.997,198.800 397.997 C 333.731 397.997,336.940 397.961,340.004 396.398 C 340.804 395.990,342.616 395.531,344.029 395.378 C 345.629 395.206,346.902 394.828,347.400 394.377 C 348.382 393.489,350.131 392.800,351.405 392.800 C 351.930 392.800,352.845 392.350,353.438 391.800 C 354.032 391.249,355.190 390.618,356.012 390.397 C 356.834 390.175,357.721 389.736,357.984 389.420 C 358.246 389.104,359.752 388.185,361.330 387.378 C 362.909 386.570,364.749 385.390,365.419 384.755 C 366.090 384.120,366.777 383.600,366.946 383.600 C 367.115 383.600,367.836 383.015,368.548 382.300 C 369.260 381.585,370.624 380.370,371.581 379.600 C 372.537 378.830,374.555 376.760,376.066 375.000 C 377.577 373.240,379.308 371.260,379.914 370.600 C 380.520 369.940,381.432 368.725,381.941 367.900 C 382.449 367.075,383.016 366.400,383.201 366.400 C 383.385 366.400,383.647 365.896,383.782 365.281 C 383.917 364.665,384.464 363.691,384.998 363.116 C 385.531 362.541,386.082 361.612,386.223 361.052 C 386.363 360.491,386.730 359.824,387.038 359.568 C 387.346 359.313,387.868 358.192,388.199 357.077 C 388.531 355.962,389.140 354.679,389.553 354.225 C 389.966 353.771,390.434 352.502,390.591 351.405 C 390.898 349.264,391.712 347.363,392.421 347.126 C 392.662 347.046,393.017 345.275,393.211 343.190 C 393.405 341.106,393.851 338.607,394.201 337.637 C 394.552 336.668,394.785 335.498,394.720 335.037 L 394.600 334.200 345.000 334.200 L 295.400 334.200 294.197 335.103 L 292.995 336.007 196.980 335.903 C 104.262 335.804,100.926 335.775,99.833 335.059 C 99.066 334.556,97.490 334.213,94.936 333.994 C 91.794 333.725,90.944 333.500,89.812 332.636 C 89.065 332.066,88.150 331.600,87.779 331.600 C 87.112 331.600,82.759 329.157,81.600 328.133 C 81.270 327.841,79.785 326.578,78.300 325.325 C 76.815 324.073,75.600 322.947,75.600 322.824 C 75.599 322.701,75.137 322.063,74.572 321.406 C 74.008 320.750,73.165 319.535,72.699 318.706 C 72.234 317.878,71.730 317.200,71.581 317.200 C 71.431 317.200,70.984 316.345,70.587 315.300 C 70.190 314.255,69.554 312.950,69.173 312.400 C 68.793 311.850,68.376 310.542,68.247 309.493 C 68.119 308.444,67.605 307.034,67.107 306.359 L 66.200 305.133 66.200 201.600 L 66.200 98.067 67.150 96.783 C 67.754 95.964,68.198 94.659,68.372 93.186 C 68.542 91.740,69.027 90.297,69.665 89.332 C 70.227 88.484,70.814 87.387,70.970 86.895 C 71.126 86.403,71.418 86.000,71.619 86.000 C 71.820 86.000,72.355 85.273,72.808 84.383 C 73.733 82.570,73.872 82.392,77.073 78.901 C 78.334 77.526,79.726 76.287,80.167 76.147 C 80.609 76.007,81.296 75.477,81.695 74.970 C 82.094 74.462,82.821 73.922,83.310 73.769 C 83.800 73.616,84.710 73.064,85.334 72.542 C 85.958 72.021,87.263 71.394,88.234 71.150 C 89.205 70.905,90.000 70.563,90.000 70.390 C 90.000 69.966,93.484 68.801,94.771 68.795 C 95.337 68.792,96.941 68.432,98.336 67.995 C 101.735 66.929,295.827 66.722,299.427 67.780 C 300.512 68.099,302.731 68.634,304.358 68.970 C 305.985 69.306,307.605 69.824,307.958 70.122 C 308.311 70.419,309.331 70.870,310.224 71.124 C 311.117 71.379,312.274 72.040,312.794 72.593 C 313.314 73.147,314.082 73.600,314.500 73.600 C 314.919 73.600,315.758 74.095,316.364 74.700 C 316.971 75.305,317.944 76.054,318.527 76.364 C 319.110 76.674,319.692 77.259,319.820 77.664 C 319.949 78.069,320.230 78.400,320.444 78.400 C 321.050 78.400,324.347 82.137,325.813 84.486 C 326.539 85.649,327.598 87.343,328.166 88.252 C 328.735 89.160,329.200 90.379,329.200 90.960 C 329.200 91.542,329.690 92.757,330.288 93.661 C 331.926 96.136,331.951 97.503,331.968 185.759 C 331.977 229.736,332.061 265.795,332.155 265.889 C 332.283 266.016,392.320 266.144,395.116 266.022 C 395.537 266.004,395.609 247.528,395.504 166.300 L 395.375 66.600 394.462 63.800 C 393.960 62.260,393.412 59.532,393.243 57.739 C 392.991 55.061,392.747 54.252,391.880 53.222 C 391.199 52.413,390.730 51.261,390.560 49.985 C 390.416 48.896,389.959 47.614,389.545 47.137 C 389.132 46.660,388.584 45.534,388.329 44.635 C 388.073 43.736,387.564 42.640,387.197 42.200 C 386.830 41.760,386.304 40.828,386.028 40.129 C 385.752 39.430,385.183 38.547,384.763 38.167 C 384.344 37.787,384.000 37.218,384.000 36.902 C 384.000 36.586,383.370 35.591,382.600 34.692 C 381.830 33.792,381.200 32.892,381.200 32.692 C 381.200 32.271,379.933 30.809,376.700 27.503 C 375.435 26.210,374.400 24.978,374.400 24.767 C 374.400 24.556,373.970 24.187,373.444 23.947 C 372.918 23.708,372.292 23.082,372.053 22.556 C 371.813 22.030,371.352 21.600,371.028 21.600 C 370.705 21.600,370.271 21.298,370.065 20.930 C 369.637 20.166,367.306 18.416,365.113 17.213 C 364.296 16.764,363.434 16.038,363.199 15.599 C 362.964 15.159,362.431 14.800,362.014 14.800 C 361.598 14.800,360.947 14.490,360.569 14.111 C 359.743 13.286,358.104 12.400,357.403 12.400 C 357.125 12.400,356.682 12.140,356.418 11.822 C 356.154 11.504,355.007 10.941,353.869 10.572 C 352.731 10.202,351.440 9.588,351.000 9.207 C 350.560 8.826,349.120 8.307,347.800 8.054 C 346.480 7.800,344.866 7.200,344.213 6.720 C 343.247 6.010,342.206 5.790,338.613 5.538 C 334.226 5.230,330.026 4.489,327.874 3.643 C 326.402 3.064,72.532 3.031,71.541 3.609 M136.800 117.884 C 136.470 118.005,135.930 118.333,135.600 118.613 C 135.270 118.893,134.100 119.387,133.000 119.711 C 130.860 120.341,128.752 121.527,126.618 123.300 C 125.890 123.905,125.093 124.400,124.847 124.400 C 124.601 124.400,124.400 124.561,124.400 124.758 C 124.400 124.954,123.850 125.704,123.178 126.424 C 122.505 127.143,121.711 128.318,121.412 129.034 C 121.112 129.750,120.514 130.525,120.081 130.757 C 119.561 131.035,119.203 131.784,119.026 132.964 C 118.879 133.946,118.273 135.436,117.679 136.275 L 116.600 137.800 116.600 201.600 L 116.600 265.400 117.663 267.000 C 118.248 267.880,118.852 269.230,119.006 270.000 C 119.159 270.770,119.681 271.850,120.165 272.400 C 120.649 272.950,121.507 274.030,122.072 274.800 C 122.974 276.032,123.861 276.942,126.823 279.679 C 127.227 280.052,128.102 280.639,128.767 280.983 C 129.432 281.327,130.297 281.947,130.688 282.361 C 131.080 282.774,132.424 283.323,133.676 283.580 C 134.927 283.837,136.453 284.441,137.066 284.923 L 138.180 285.800 199.590 285.800 L 261.000 285.800 262.400 284.930 C 263.170 284.452,264.700 283.839,265.800 283.567 C 266.900 283.296,268.391 282.563,269.114 281.937 C 269.837 281.312,270.623 280.800,270.861 280.800 C 271.234 280.800,273.969 278.100,277.418 274.326 C 277.958 273.735,278.400 272.958,278.400 272.599 C 278.400 271.755,279.133 270.397,280.010 269.617 C 281.487 268.302,281.600 263.469,281.600 201.600 C 281.600 136.225,281.565 135.056,279.527 133.140 C 278.907 132.556,278.400 131.728,278.400 131.298 C 278.400 130.868,277.958 129.996,277.417 129.358 C 276.877 128.721,275.956 127.636,275.371 126.946 C 272.302 123.327,268.137 120.526,264.734 119.790 C 264.000 119.632,262.591 119.074,261.603 118.551 L 259.806 117.600 198.603 117.632 C 164.941 117.649,137.130 117.762,136.800 117.884 " stroke="none" fill="#2464b4" fill-rule="evenodd"></path><path id="path2" d="M135.700 2.700 C 170.845 2.756,228.355 2.756,263.500 2.700 C 298.645 2.644,269.890 2.598,199.600 2.598 C 129.310 2.598,100.555 2.644,135.700 2.700 M64.000 3.640 C 62.350 4.078,59.612 4.600,57.916 4.799 C 56.108 5.011,53.941 5.583,52.678 6.181 C 51.492 6.741,50.180 7.200,49.761 7.200 C 48.556 7.200,39.706 11.563,36.150 13.911 C 30.780 17.455,27.990 19.679,24.090 23.520 C 19.797 27.747,16.338 31.743,15.431 33.521 C 15.061 34.247,14.506 34.938,14.198 35.056 C 13.891 35.174,13.443 35.863,13.204 36.587 C 12.965 37.311,12.423 38.217,12.000 38.600 C 11.577 38.983,11.017 39.950,10.756 40.748 C 10.495 41.547,9.858 42.827,9.341 43.593 C 8.823 44.359,8.400 45.227,8.400 45.522 C 8.400 45.816,7.968 46.810,7.439 47.729 C 6.911 48.648,6.354 50.030,6.202 50.800 C 6.050 51.570,5.500 53.117,4.980 54.238 C 4.457 55.367,3.914 57.509,3.764 59.038 C 3.615 60.557,3.145 62.700,2.720 63.800 C 2.253 65.007,1.898 67.068,1.823 69.000 C 1.716 71.771,1.735 71.878,1.959 69.800 C 2.102 68.480,2.513 66.770,2.872 66.000 C 3.231 65.230,3.734 62.839,3.991 60.686 C 4.274 58.308,4.828 55.953,5.401 54.686 C 5.920 53.539,6.470 51.880,6.623 51.000 C 6.776 50.120,7.135 49.130,7.420 48.800 C 7.705 48.470,8.319 47.181,8.785 45.936 C 9.250 44.691,9.876 43.469,10.176 43.220 C 10.476 42.971,10.841 42.291,10.987 41.708 C 11.134 41.125,11.606 40.153,12.037 39.548 C 12.469 38.942,13.089 37.806,13.416 37.023 C 13.743 36.240,14.185 35.600,14.397 35.600 C 14.610 35.600,15.146 34.890,15.589 34.021 C 16.032 33.153,16.622 32.298,16.900 32.121 C 17.177 31.945,17.921 31.107,18.553 30.260 C 19.497 28.994,24.053 23.997,25.860 22.245 C 26.549 21.577,28.734 19.856,31.200 18.039 C 32.410 17.147,33.898 15.964,34.507 15.409 C 35.116 14.854,35.856 14.400,36.153 14.400 C 36.449 14.400,37.153 14.037,37.717 13.594 C 39.752 11.993,48.736 7.798,50.955 7.413 C 51.810 7.265,52.989 6.789,53.574 6.356 C 54.327 5.799,55.749 5.454,58.420 5.179 C 60.499 4.965,63.640 4.435,65.400 4.002 C 67.160 3.569,69.230 3.150,70.000 3.071 C 70.884 2.981,70.589 2.913,69.200 2.886 C 67.990 2.863,65.650 3.202,64.000 3.640 M330.000 3.153 C 331.210 3.319,333.190 3.755,334.400 4.123 C 335.610 4.491,338.272 4.964,340.316 5.173 C 342.735 5.422,344.481 5.827,345.316 6.334 C 346.022 6.763,347.230 7.237,348.000 7.387 C 350.195 7.817,359.039 11.998,360.929 13.500 C 361.552 13.995,362.255 14.400,362.492 14.400 C 364.602 14.400,379.857 28.664,381.849 32.500 C 382.163 33.105,382.580 33.600,382.775 33.600 C 382.969 33.600,383.509 34.386,383.974 35.347 C 384.440 36.308,385.159 37.401,385.574 37.777 C 385.989 38.152,386.444 38.920,386.585 39.484 C 386.727 40.048,387.259 41.070,387.769 41.755 C 388.278 42.440,388.817 43.513,388.965 44.140 C 389.114 44.767,389.581 45.757,390.004 46.340 C 390.427 46.923,390.956 48.240,391.181 49.268 C 391.405 50.295,391.942 51.735,392.373 52.468 C 392.804 53.200,393.344 54.981,393.574 56.425 C 393.803 57.868,394.398 60.118,394.894 61.425 L 395.797 63.800 395.914 164.600 C 396.034 268.898,396.053 267.023,394.900 267.324 C 394.360 267.465,394.400 267.518,395.076 267.554 C 395.558 267.579,396.058 267.430,396.186 267.223 C 396.595 266.561,396.419 70.003,396.006 65.664 C 395.794 63.443,395.347 60.969,395.012 60.167 C 394.677 59.365,394.231 57.640,394.020 56.333 C 393.810 55.026,393.199 53.021,392.664 51.878 C 392.129 50.735,391.558 49.170,391.396 48.400 C 391.233 47.630,390.795 46.550,390.422 46.000 C 390.049 45.450,389.427 44.147,389.040 43.104 C 388.653 42.061,388.156 41.097,387.935 40.960 C 387.715 40.824,387.186 39.967,386.761 39.056 C 386.335 38.145,385.543 36.770,385.000 36.000 C 381.770 31.418,380.875 30.280,378.083 27.200 C 372.930 21.517,366.398 15.815,363.200 14.209 C 362.430 13.823,361.440 13.188,361.000 12.799 C 360.560 12.410,359.750 11.956,359.200 11.789 C 358.650 11.623,357.573 11.062,356.807 10.544 C 356.041 10.025,355.231 9.599,355.007 9.598 C 354.783 9.598,353.520 9.058,352.200 8.400 C 350.880 7.742,349.479 7.202,349.087 7.202 C 348.694 7.201,347.497 6.756,346.425 6.213 C 345.155 5.569,343.193 5.070,340.788 4.777 C 338.758 4.530,336.356 4.062,335.449 3.736 C 334.542 3.410,332.450 3.078,330.800 2.998 C 328.112 2.868,328.029 2.884,330.000 3.153 M99.200 68.691 C 95.947 69.473,96.804 69.871,100.359 69.230 C 103.203 68.716,296.397 68.825,300.000 69.342 L 301.800 69.600 300.000 68.906 C 297.361 67.889,103.403 67.681,99.200 68.691 M90.964 70.753 C 89.624 71.387,88.129 72.032,87.641 72.187 C 87.152 72.342,85.660 73.218,84.324 74.134 C 82.988 75.050,81.333 76.181,80.647 76.646 C 76.665 79.347,68.691 90.903,68.846 93.748 C 68.885 94.459,68.924 94.480,69.080 93.876 C 69.183 93.478,69.793 92.155,70.434 90.936 C 71.075 89.716,71.600 88.498,71.600 88.229 C 71.600 87.960,72.050 87.317,72.600 86.800 C 73.150 86.283,73.600 85.627,73.600 85.341 C 73.600 83.076,85.248 73.106,88.991 72.167 C 89.643 72.003,90.806 71.497,91.576 71.043 C 92.346 70.589,93.791 70.102,94.788 69.962 L 96.600 69.707 95.000 69.654 C 93.977 69.620,92.522 70.016,90.964 70.753 M303.725 70.017 C 304.784 70.195,306.101 70.637,306.653 70.998 C 307.205 71.359,308.435 71.890,309.387 72.176 C 310.340 72.463,311.739 73.170,312.497 73.749 C 313.255 74.327,313.992 74.800,314.134 74.800 C 314.925 74.800,320.282 79.399,322.104 81.641 C 325.439 85.748,328.800 91.654,328.800 93.409 C 328.800 93.851,329.194 94.929,329.675 95.806 C 330.260 96.872,330.637 98.460,330.813 100.600 L 331.076 103.800 331.138 100.768 C 331.189 98.269,331.029 97.397,330.226 95.811 C 329.690 94.752,329.134 93.194,328.991 92.348 C 328.848 91.503,328.340 90.223,327.862 89.505 C 327.384 88.787,326.770 87.699,326.498 87.086 C 324.716 83.068,316.508 74.794,313.353 73.837 C 312.887 73.695,312.184 73.224,311.791 72.790 C 311.398 72.355,310.834 72.000,310.539 72.000 C 310.244 72.000,308.859 71.460,307.462 70.800 C 305.861 70.044,304.345 69.617,303.361 69.647 L 301.800 69.694 303.725 70.017 M68.454 95.677 C 68.425 96.270,67.995 97.440,67.500 98.277 L 66.600 99.800 66.600 201.600 C 66.600 301.183,66.617 303.430,67.367 304.800 C 67.789 305.570,68.265 306.740,68.426 307.400 C 68.698 308.519,68.721 308.531,68.759 307.586 C 68.782 307.029,68.395 305.499,67.900 304.186 L 67.000 301.800 67.000 201.800 L 67.000 101.800 67.927 99.092 C 68.437 97.603,68.776 95.983,68.681 95.492 C 68.532 94.721,68.502 94.746,68.454 95.677 M331.396 184.000 C 331.396 227.890,331.443 245.845,331.500 223.900 C 331.557 201.955,331.557 166.045,331.500 144.100 C 331.443 122.155,331.396 140.110,331.396 184.000 M138.149 116.781 C 136.580 116.926,134.870 117.322,134.349 117.662 C 133.827 118.001,132.680 118.509,131.800 118.790 C 126.934 120.345,119.581 127.473,118.199 131.973 C 118.034 132.509,117.472 133.750,116.950 134.733 C 116.303 135.950,116.018 137.106,116.056 138.360 L 116.113 140.200 116.403 138.200 C 116.563 137.100,117.168 135.314,117.747 134.232 C 118.326 133.150,118.800 131.957,118.800 131.581 C 118.800 131.205,119.083 130.663,119.429 130.376 C 119.775 130.089,120.392 129.199,120.801 128.399 C 122.288 125.482,129.902 119.200,131.949 119.200 C 132.224 119.200,133.405 118.748,134.574 118.195 L 136.698 117.190 199.249 117.295 L 261.800 117.400 263.385 118.300 C 264.256 118.795,265.336 119.186,265.785 119.168 C 266.349 119.147,266.415 119.072,266.000 118.927 C 265.670 118.812,264.692 118.362,263.826 117.927 C 262.932 117.477,260.771 116.980,258.826 116.775 C 254.954 116.367,142.564 116.373,138.149 116.781 M268.400 120.400 C 269.390 121.058,270.380 121.600,270.600 121.605 C 271.661 121.628,278.173 128.682,279.033 130.741 C 279.366 131.537,279.968 132.552,280.371 132.995 C 280.775 133.438,281.229 134.700,281.381 135.800 C 281.534 136.900,281.916 138.705,282.232 139.811 C 282.720 141.526,282.789 150.709,282.695 202.011 C 282.578 266.595,282.582 266.473,280.581 270.000 C 280.269 270.550,279.689 271.653,279.293 272.451 C 278.373 274.302,274.710 278.616,272.615 280.316 C 269.340 282.972,268.562 283.459,266.800 283.959 C 265.810 284.239,264.550 284.762,264.000 285.120 C 263.450 285.478,262.190 285.903,261.200 286.065 C 259.531 286.338,259.564 286.348,261.664 286.212 C 262.910 286.131,264.353 285.787,264.871 285.448 C 265.389 285.108,266.587 284.557,267.533 284.224 C 270.603 283.140,278.126 276.254,279.197 273.546 C 279.490 272.806,280.060 271.828,280.465 271.374 C 280.869 270.920,281.388 269.529,281.619 268.282 C 281.849 267.036,282.389 264.994,282.819 263.745 C 283.580 261.532,283.600 259.953,283.600 201.588 L 283.600 141.702 282.600 138.639 C 282.050 136.954,281.600 135.155,281.600 134.642 C 281.600 134.128,281.265 133.279,280.855 132.754 C 280.445 132.229,279.731 131.053,279.267 130.139 C 278.243 128.123,272.291 121.746,271.074 121.361 C 270.593 121.209,269.643 120.661,268.962 120.142 C 268.281 119.624,267.471 119.201,267.162 119.202 C 266.853 119.203,267.410 119.742,268.400 120.400 M115.795 201.600 C 115.795 235.370,115.842 249.185,115.900 232.300 C 115.958 215.415,115.958 187.785,115.900 170.900 C 115.842 154.015,115.795 167.830,115.795 201.600 M116.114 265.000 C 116.117 266.100,116.195 266.503,116.287 265.895 C 116.379 265.286,116.377 264.386,116.282 263.895 C 116.187 263.403,116.111 263.900,116.114 265.000 M331.236 265.424 C 331.175 266.813,332.099 267.689,333.420 267.494 L 334.600 267.320 333.311 267.260 C 332.222 267.209,331.965 266.999,331.648 265.900 C 331.397 265.031,331.260 264.873,331.236 265.424 M116.400 267.450 C 116.400 267.655,116.676 268.216,117.013 268.697 C 117.350 269.178,117.886 270.310,118.204 271.212 C 119.237 274.139,124.965 280.452,127.986 281.993 C 128.874 282.446,129.600 282.986,129.600 283.193 C 129.600 283.400,130.461 283.825,131.513 284.137 C 132.565 284.450,134.138 285.087,135.007 285.553 C 136.045 286.109,137.208 286.376,138.394 286.330 L 140.200 286.260 138.424 286.103 C 137.448 286.017,136.186 285.617,135.621 285.215 C 135.055 284.812,133.784 284.267,132.796 284.003 C 129.891 283.226,121.200 276.635,121.200 275.208 C 121.200 275.044,120.660 274.231,120.001 273.401 C 119.341 272.571,118.622 271.225,118.402 270.409 C 118.031 269.030,116.400 266.619,116.400 267.450 M349.729 267.500 C 357.831 267.560,370.971 267.560,378.929 267.500 C 386.888 267.439,380.260 267.390,364.200 267.390 C 348.140 267.390,341.628 267.439,349.729 267.500 M68.846 309.669 C 68.821 310.266,69.219 311.239,69.748 311.869 C 70.270 312.491,70.821 313.570,70.973 314.267 C 71.250 315.537,71.740 316.285,75.332 320.911 C 78.272 324.699,86.478 331.173,88.388 331.213 C 88.725 331.219,90.075 331.759,91.390 332.413 C 93.077 333.251,94.312 333.585,95.590 333.550 L 97.400 333.500 95.296 333.193 C 94.138 333.024,92.788 332.624,92.296 332.304 C 91.803 331.983,90.680 331.493,89.800 331.215 C 88.920 330.936,87.374 330.189,86.365 329.554 C 85.356 328.919,84.380 328.400,84.196 328.400 C 82.952 328.400,73.600 319.062,73.600 317.821 C 73.600 317.548,73.247 317.004,72.815 316.614 C 72.383 316.223,71.825 315.250,71.573 314.452 C 71.322 313.653,70.705 312.359,70.202 311.575 C 69.699 310.791,69.199 309.801,69.090 309.375 C 68.942 308.792,68.881 308.865,68.846 309.669 M1.825 333.800 C 1.900 335.675,2.216 337.522,2.586 338.261 C 2.935 338.954,3.414 341.113,3.652 343.057 C 3.910 345.164,4.449 347.322,4.988 348.397 C 5.484 349.388,6.021 350.915,6.180 351.788 C 6.339 352.661,6.904 354.117,7.435 355.023 C 7.966 355.929,8.400 356.942,8.400 357.275 C 8.400 357.608,8.937 358.672,9.593 359.640 C 10.249 360.608,10.789 361.693,10.793 362.051 C 10.797 362.409,11.084 362.938,11.431 363.226 C 11.778 363.514,12.505 364.571,13.045 365.575 C 13.585 366.579,14.516 368.047,15.114 368.838 C 15.711 369.629,17.002 371.339,17.981 372.638 C 21.855 377.775,31.737 386.571,36.000 388.677 C 36.770 389.057,37.670 389.581,38.000 389.842 C 39.042 390.663,44.778 393.600,45.342 393.600 C 45.638 393.600,46.750 394.062,47.812 394.627 C 48.874 395.192,50.740 395.838,51.959 396.063 C 53.178 396.289,54.879 396.832,55.740 397.272 C 56.718 397.770,58.705 398.203,61.030 398.423 C 63.078 398.616,65.889 398.959,67.277 399.184 C 70.824 399.760,327.472 399.758,330.445 399.183 C 331.630 398.953,334.326 398.612,336.435 398.424 C 338.916 398.203,340.827 397.799,341.847 397.278 C 342.715 396.835,344.422 396.289,345.641 396.063 C 346.860 395.838,348.726 395.192,349.788 394.627 C 350.850 394.062,351.962 393.600,352.258 393.600 C 352.753 393.600,354.822 392.548,360.856 389.228 C 362.097 388.546,363.334 387.720,363.605 387.394 C 363.876 387.067,364.268 386.800,364.476 386.800 C 364.862 386.800,365.916 385.991,370.942 381.838 C 375.183 378.332,379.281 373.839,382.247 369.442 C 382.713 368.751,383.388 367.942,383.747 367.644 C 384.106 367.346,384.400 366.878,384.400 366.605 C 384.400 366.332,384.805 365.601,385.300 364.981 C 386.214 363.837,387.199 362.126,388.547 359.342 C 391.164 353.935,391.600 352.926,391.600 352.275 C 391.600 351.877,392.040 350.617,392.579 349.475 C 393.117 348.334,393.747 346.207,393.979 344.749 C 394.210 343.291,394.678 341.433,395.018 340.620 C 396.272 337.618,396.278 334.086,395.031 333.612 C 394.305 333.336,377.843 333.232,345.074 333.296 L 296.200 333.392 345.800 333.602 C 373.080 333.717,395.445 333.853,395.500 333.905 C 395.861 334.247,395.474 337.199,394.810 339.169 C 394.376 340.458,393.819 342.816,393.571 344.409 C 393.324 346.001,392.690 348.117,392.161 349.112 C 391.633 350.106,391.193 351.387,391.184 351.960 C 391.175 352.532,390.635 353.990,389.984 355.200 C 389.333 356.410,388.800 357.600,388.800 357.844 C 388.800 358.088,388.368 358.925,387.840 359.703 C 387.312 360.481,386.751 361.541,386.594 362.059 C 386.437 362.576,385.989 363.360,385.599 363.800 C 385.209 364.240,384.506 365.365,384.037 366.300 C 383.568 367.235,383.036 368.000,382.855 368.000 C 382.674 368.000,382.187 368.630,381.772 369.400 C 381.357 370.170,380.888 370.800,380.728 370.800 C 380.569 370.800,379.871 371.625,379.178 372.633 C 377.567 374.974,372.035 380.526,369.246 382.600 C 368.063 383.480,366.624 384.653,366.048 385.206 C 365.471 385.760,364.550 386.441,364.000 386.719 C 363.450 386.998,362.010 387.847,360.800 388.607 C 359.590 389.367,357.790 390.379,356.800 390.857 C 355.810 391.334,354.550 392.040,354.000 392.425 C 353.450 392.810,352.343 393.237,351.541 393.373 C 350.738 393.509,349.630 393.976,349.078 394.410 C 348.526 394.844,346.753 395.456,345.137 395.770 C 343.522 396.084,341.570 396.667,340.800 397.065 C 338.150 398.436,332.992 398.496,202.800 398.681 C 64.461 398.878,60.427 398.835,57.022 397.124 C 56.154 396.688,54.125 396.079,52.513 395.771 C 50.900 395.462,49.090 394.859,48.490 394.429 C 47.891 394.000,46.590 393.441,45.600 393.187 C 44.610 392.933,43.525 392.480,43.188 392.181 C 42.852 391.881,42.040 391.402,41.385 391.118 C 39.320 390.221,32.408 385.944,31.253 384.849 C 30.644 384.272,29.448 383.260,28.594 382.600 C 25.793 380.435,23.522 378.249,20.698 375.000 C 15.966 369.557,14.423 367.518,13.583 365.602 C 13.342 365.053,12.751 364.063,12.269 363.402 C 11.500 362.346,10.222 359.845,7.566 354.200 C 7.152 353.320,6.611 351.791,6.365 350.802 C 6.118 349.813,5.588 348.360,5.186 347.573 C 4.767 346.750,4.261 344.373,3.999 341.988 C 3.747 339.704,3.244 337.197,2.881 336.417 C 2.518 335.638,2.103 334.010,1.958 332.800 C 1.751 331.061,1.723 331.271,1.825 333.800 M98.800 333.846 C 99.350 333.948,101.006 334.295,102.479 334.616 C 106.430 335.477,291.794 335.500,293.022 334.639 C 293.462 334.331,294.178 333.994,294.611 333.890 C 295.045 333.786,294.770 333.811,294.000 333.946 C 292.079 334.283,105.440 334.267,101.200 333.929 C 99.330 333.780,98.250 333.743,98.800 333.846 " stroke="none" fill="#719ccc" fill-rule="evenodd"></path><path id="path3" d="M67.800 2.027 C 65.380 2.197,62.642 2.611,61.715 2.945 C 60.788 3.280,58.538 3.774,56.715 4.043 C 54.842 4.319,52.704 4.922,51.800 5.428 C 50.920 5.920,49.429 6.447,48.486 6.599 C 47.543 6.751,46.283 7.280,45.686 7.776 C 45.089 8.271,44.034 8.786,43.343 8.919 C 42.652 9.053,41.222 9.711,40.165 10.381 C 39.108 11.052,38.031 11.600,37.771 11.600 C 37.511 11.600,37.063 11.883,36.776 12.229 C 36.489 12.575,35.611 13.213,34.827 13.645 C 30.946 15.786,29.185 17.252,22.820 23.640 C 15.853 30.634,14.822 31.865,12.839 35.556 C 12.531 36.130,11.856 37.109,11.339 37.731 C 10.823 38.353,10.400 39.092,10.400 39.375 C 10.400 39.657,9.924 40.588,9.342 41.444 C 8.760 42.300,8.113 43.630,7.904 44.400 C 7.694 45.170,7.188 46.164,6.779 46.608 C 6.369 47.052,5.779 48.509,5.467 49.846 C 5.155 51.182,4.604 52.728,4.241 53.281 C 3.879 53.834,3.328 55.707,3.017 57.443 C 2.706 59.179,2.215 61.230,1.926 62.000 C 1.005 64.451,1.163 338.711,2.087 341.400 C 2.464 342.500,2.951 344.535,3.168 345.923 C 3.385 347.310,3.923 349.029,4.364 349.741 C 4.804 350.454,5.287 351.805,5.437 352.744 C 5.588 353.683,6.128 355.066,6.638 355.817 C 7.148 356.569,7.752 357.879,7.981 358.728 C 8.209 359.578,8.741 360.585,9.162 360.966 C 9.583 361.347,10.041 362.108,10.179 362.658 C 10.439 363.693,12.875 367.618,14.100 368.975 C 14.485 369.402,14.800 369.865,14.800 370.006 C 14.800 370.575,18.689 375.221,21.994 378.600 C 25.646 382.333,26.697 383.250,30.400 385.935 C 31.610 386.813,33.125 387.945,33.767 388.452 C 35.057 389.469,37.511 390.912,39.474 391.808 C 40.175 392.128,41.384 392.821,42.161 393.348 C 42.938 393.875,44.234 394.430,45.041 394.581 C 45.848 394.733,46.980 395.198,47.555 395.615 C 48.130 396.031,49.500 396.565,50.600 396.800 C 51.700 397.036,53.500 397.568,54.600 397.982 C 55.700 398.397,57.860 398.914,59.400 399.131 C 60.940 399.349,63.370 399.807,64.800 400.149 C 69.346 401.238,328.972 401.097,333.312 400.004 C 335.023 399.572,337.735 399.057,339.339 398.858 C 340.943 398.658,342.783 398.228,343.428 397.901 C 344.072 397.575,345.590 397.086,346.800 396.816 C 348.010 396.546,349.483 395.986,350.073 395.571 C 350.663 395.156,351.906 394.645,352.836 394.436 C 353.766 394.227,354.993 393.712,355.564 393.291 C 356.134 392.870,357.410 392.144,358.400 391.678 C 360.332 390.769,361.722 389.917,365.374 387.400 C 366.651 386.520,368.150 385.499,368.704 385.131 C 369.932 384.318,370.344 383.938,375.413 378.949 C 377.620 376.777,379.960 374.296,380.613 373.434 C 381.266 372.573,382.475 370.995,383.300 369.926 C 384.125 368.858,384.800 367.893,384.800 367.782 C 384.800 367.671,385.385 366.695,386.100 365.612 C 388.533 361.927,389.492 360.202,389.776 359.000 C 389.932 358.340,390.404 357.431,390.825 356.979 C 391.246 356.528,391.775 355.178,392.000 353.979 C 392.225 352.781,392.778 351.297,393.230 350.682 C 393.681 350.068,394.225 348.476,394.440 347.145 C 394.654 345.815,395.107 343.978,395.446 343.063 C 396.368 340.579,396.763 338.461,396.783 335.909 C 396.812 332.034,401.962 332.362,344.763 332.595 C 125.090 333.490,97.338 333.358,93.139 331.404 C 91.963 330.856,90.657 330.406,90.238 330.404 C 89.819 330.402,88.919 329.976,88.238 329.458 C 87.557 328.939,86.550 328.375,86.000 328.203 C 84.915 327.864,83.617 326.891,80.124 323.800 C 76.089 320.229,71.600 313.946,71.600 311.871 C 71.600 311.647,71.307 311.139,70.948 310.742 C 70.589 310.346,69.832 307.992,69.265 305.511 L 68.234 301.000 68.101 202.600 L 67.967 104.200 69.013 99.200 C 69.589 96.450,70.496 93.297,71.030 92.194 C 71.563 91.091,72.000 90.028,72.000 89.832 C 72.000 89.636,72.424 88.919,72.942 88.238 C 73.461 87.557,74.026 86.554,74.199 86.008 C 74.371 85.462,74.982 84.531,75.556 83.938 C 76.130 83.345,77.289 82.126,78.130 81.229 C 80.327 78.888,84.755 75.200,85.368 75.200 C 85.655 75.200,86.569 74.660,87.400 74.000 C 88.231 73.340,89.260 72.800,89.688 72.800 C 90.116 72.800,91.756 72.215,93.333 71.500 L 96.200 70.200 199.200 70.200 L 302.200 70.200 304.400 71.284 C 305.610 71.880,307.405 72.573,308.389 72.823 C 309.373 73.074,310.692 73.711,311.320 74.239 C 311.948 74.768,312.705 75.200,313.002 75.200 C 313.300 75.200,313.822 75.479,314.163 75.821 C 314.505 76.162,316.003 77.438,317.492 78.655 C 320.148 80.827,322.831 83.815,323.547 85.400 C 323.746 85.840,324.289 86.543,324.754 86.962 C 325.219 87.381,325.600 87.941,325.600 88.206 C 325.600 88.471,326.114 89.658,326.743 90.844 C 327.372 92.030,328.015 93.720,328.173 94.600 C 328.330 95.480,328.755 96.650,329.117 97.200 C 330.048 98.614,330.031 97.099,330.120 186.658 C 330.198 264.764,330.219 266.737,330.962 267.558 L 331.724 268.400 364.000 268.400 L 396.276 268.400 397.038 267.558 C 397.783 266.735,397.800 264.581,397.800 172.058 C 397.800 70.519,397.657 62.367,395.817 58.734 C 395.445 58.001,394.886 56.091,394.575 54.490 C 394.264 52.890,393.654 51.090,393.219 50.490 C 392.784 49.891,392.235 48.518,391.999 47.440 C 391.763 46.361,391.126 44.953,390.585 44.309 C 390.043 43.665,389.600 42.727,389.600 42.223 C 389.600 41.720,389.259 40.875,388.843 40.346 C 387.992 39.263,386.885 37.458,385.443 34.800 C 384.906 33.810,384.136 32.699,383.733 32.332 C 383.330 31.964,382.370 30.801,381.600 29.748 C 379.350 26.670,374.482 21.722,370.600 18.567 C 368.620 16.958,366.431 15.179,365.735 14.612 C 365.040 14.046,363.915 13.389,363.235 13.152 C 362.556 12.916,362.000 12.553,362.000 12.347 C 362.000 12.140,361.235 11.626,360.300 11.205 C 359.365 10.783,358.150 10.172,357.600 9.848 C 355.098 8.371,350.496 6.400,349.550 6.400 C 348.977 6.400,348.032 6.026,347.450 5.568 C 346.761 5.026,345.152 4.536,342.832 4.163 C 340.874 3.848,338.491 3.312,337.536 2.972 C 336.581 2.633,333.460 2.192,330.600 1.992 C 324.284 1.550,74.100 1.584,67.800 2.027 M329.800 2.792 C 332.000 2.992,334.542 3.420,335.449 3.743 C 336.356 4.065,338.758 4.530,340.788 4.777 C 343.193 5.070,345.155 5.569,346.425 6.213 C 347.497 6.756,348.694 7.201,349.087 7.202 C 349.479 7.202,350.880 7.742,352.200 8.400 C 353.520 9.058,354.783 9.598,355.007 9.598 C 355.231 9.599,356.041 10.025,356.807 10.544 C 357.573 11.062,358.650 11.623,359.200 11.789 C 359.750 11.956,360.560 12.410,361.000 12.799 C 361.440 13.188,362.430 13.823,363.200 14.209 C 364.515 14.870,365.346 15.453,368.154 17.683 C 370.718 19.721,375.173 23.991,378.083 27.200 C 380.875 30.280,381.770 31.418,385.000 36.000 C 385.543 36.770,386.335 38.145,386.761 39.056 C 387.186 39.967,387.715 40.824,387.935 40.960 C 388.156 41.097,388.653 42.061,389.040 43.104 C 389.427 44.147,390.049 45.450,390.422 46.000 C 390.795 46.550,391.233 47.630,391.396 48.400 C 391.558 49.170,392.129 50.735,392.664 51.878 C 393.199 53.021,393.810 55.026,394.020 56.333 C 394.231 57.640,394.677 59.365,395.012 60.167 C 395.347 60.969,395.794 63.443,396.006 65.664 C 396.419 70.003,396.595 266.561,396.186 267.223 C 395.803 267.843,332.126 267.721,331.724 267.100 C 331.546 266.825,331.310 228.800,331.200 182.600 L 331.000 98.600 329.900 96.325 C 329.295 95.073,328.800 93.725,328.800 93.328 C 328.800 91.647,325.373 85.666,322.104 81.641 C 320.282 79.399,314.925 74.800,314.134 74.800 C 313.992 74.800,313.255 74.327,312.497 73.749 C 311.739 73.170,310.340 72.463,309.387 72.176 C 308.435 71.890,307.199 71.356,306.640 70.990 C 303.581 68.985,305.250 69.016,199.400 69.008 C 93.038 69.000,95.105 68.961,91.555 71.056 C 90.796 71.503,89.643 72.003,88.991 72.167 C 85.248 73.106,73.600 83.076,73.600 85.341 C 73.600 85.627,73.150 86.283,72.600 86.800 C 72.050 87.317,71.600 87.960,71.600 88.229 C 71.600 88.498,71.059 89.747,70.397 91.005 C 69.736 92.262,69.088 94.035,68.958 94.945 C 68.828 95.855,68.334 97.770,67.860 99.200 L 67.000 101.800 67.000 201.600 L 67.000 301.400 67.860 304.000 C 68.334 305.430,68.832 307.374,68.969 308.321 C 69.105 309.267,69.644 310.707,70.166 311.521 C 70.689 312.334,71.322 313.653,71.573 314.452 C 71.825 315.250,72.383 316.223,72.815 316.614 C 73.247 317.004,73.600 317.548,73.600 317.821 C 73.600 319.062,82.952 328.400,84.196 328.400 C 84.380 328.400,85.356 328.919,86.365 329.554 C 87.374 330.189,88.920 330.936,89.800 331.215 C 90.680 331.493,91.817 331.993,92.328 332.325 C 92.889 332.690,95.733 333.211,99.528 333.645 C 107.625 334.571,291.019 334.813,293.074 333.900 C 294.571 333.235,393.280 332.946,395.003 333.601 C 396.279 334.086,396.286 337.583,395.018 340.620 C 394.678 341.433,394.210 343.291,393.979 344.749 C 393.747 346.207,393.117 348.334,392.579 349.475 C 392.040 350.617,391.600 351.877,391.600 352.275 C 391.600 352.926,391.164 353.935,388.547 359.342 C 387.199 362.126,386.214 363.837,385.300 364.981 C 384.805 365.601,384.400 366.332,384.400 366.605 C 384.400 366.878,384.106 367.346,383.747 367.644 C 383.388 367.942,382.713 368.751,382.247 369.442 C 379.281 373.839,375.183 378.332,370.942 381.838 C 365.916 385.991,364.862 386.800,364.476 386.800 C 364.268 386.800,363.876 387.067,363.605 387.394 C 363.334 387.720,362.097 388.546,360.856 389.228 C 354.822 392.548,352.753 393.600,352.258 393.600 C 351.962 393.600,350.850 394.062,349.788 394.627 C 348.726 395.192,346.860 395.838,345.641 396.063 C 344.422 396.289,342.715 396.835,341.847 397.278 C 340.827 397.799,338.916 398.203,336.435 398.424 C 334.326 398.612,331.630 398.953,330.445 399.183 C 327.472 399.758,70.824 399.760,67.277 399.184 C 65.889 398.959,63.078 398.616,61.030 398.423 C 58.705 398.203,56.718 397.770,55.740 397.272 C 54.879 396.832,53.178 396.289,51.959 396.063 C 50.740 395.838,48.874 395.192,47.812 394.627 C 46.750 394.062,45.638 393.600,45.342 393.600 C 44.778 393.600,39.042 390.663,38.000 389.842 C 37.670 389.581,36.770 389.057,36.000 388.677 C 31.737 386.571,21.855 377.775,17.981 372.638 C 17.002 371.339,15.711 369.629,15.114 368.838 C 14.516 368.047,13.585 366.579,13.045 365.575 C 12.505 364.571,11.778 363.514,11.431 363.226 C 11.084 362.938,10.797 362.409,10.793 362.051 C 10.789 361.693,10.249 360.608,9.593 359.640 C 8.937 358.672,8.400 357.608,8.400 357.275 C 8.400 356.942,7.966 355.929,7.435 355.023 C 6.904 354.117,6.339 352.661,6.180 351.788 C 6.021 350.915,5.484 349.388,4.988 348.397 C 4.452 347.326,3.910 345.167,3.655 343.084 C 3.419 341.155,2.905 338.906,2.513 338.088 C 1.833 336.670,1.800 330.279,1.800 201.400 L 1.800 66.200 2.645 64.000 C 3.110 62.790,3.613 60.557,3.763 59.038 C 3.913 57.513,4.458 55.364,4.980 54.238 C 5.500 53.117,6.050 51.570,6.202 50.800 C 6.354 50.030,6.911 48.648,7.439 47.729 C 7.968 46.810,8.400 45.816,8.400 45.522 C 8.400 45.227,8.823 44.359,9.341 43.593 C 9.858 42.827,10.495 41.547,10.756 40.748 C 11.017 39.950,11.577 38.983,12.000 38.600 C 12.423 38.217,12.965 37.311,13.204 36.587 C 13.443 35.863,13.891 35.174,14.198 35.056 C 14.506 34.938,15.061 34.247,15.431 33.521 C 16.338 31.743,19.797 27.747,24.090 23.520 C 27.990 19.679,30.780 17.455,36.150 13.911 C 39.706 11.563,48.556 7.200,49.761 7.200 C 50.180 7.200,51.492 6.741,52.678 6.181 C 53.974 5.567,56.086 5.018,57.980 4.802 C 59.712 4.605,62.179 4.137,63.464 3.762 C 64.749 3.387,67.240 2.953,69.000 2.798 C 73.832 2.371,325.118 2.365,329.800 2.792 M138.400 116.023 C 134.462 116.232,133.052 116.600,131.600 117.798 C 131.270 118.070,130.460 118.421,129.800 118.577 C 126.743 119.303,118.785 127.345,117.637 130.868 C 117.374 131.675,116.908 132.544,116.601 132.799 C 116.295 133.054,115.865 134.193,115.646 135.331 C 115.427 136.469,114.968 138.844,114.624 140.609 C 113.884 144.417,113.663 258.566,114.392 261.200 C 114.604 261.970,114.953 263.837,115.166 265.350 C 115.570 268.214,117.696 273.147,119.498 275.400 C 121.024 277.307,126.121 282.400,126.505 282.400 C 126.696 282.400,127.457 282.861,128.195 283.424 C 128.933 283.987,130.211 284.633,131.035 284.861 C 131.859 285.088,133.001 285.621,133.574 286.044 C 135.536 287.495,139.834 287.594,200.200 287.585 C 260.023 287.575,264.073 287.481,266.000 286.063 C 266.550 285.658,267.661 285.109,268.468 284.843 C 269.275 284.577,270.163 284.085,270.441 283.750 C 270.719 283.415,271.590 282.813,272.376 282.412 C 274.363 281.398,278.801 276.584,279.699 274.469 C 279.949 273.881,280.498 273.008,280.920 272.528 C 281.342 272.048,282.012 270.518,282.410 269.128 C 282.807 267.738,283.420 265.826,283.771 264.880 C 284.612 262.615,284.557 138.953,283.715 137.939 C 283.448 137.617,282.958 136.312,282.627 135.038 C 282.295 133.764,281.478 131.898,280.812 130.892 C 280.145 129.886,279.600 128.863,279.600 128.619 C 279.600 127.946,273.967 122.250,272.012 120.947 C 271.066 120.316,269.822 119.486,269.246 119.102 C 268.671 118.718,267.881 118.403,267.491 118.402 C 267.102 118.401,266.078 117.934,265.217 117.364 C 263.972 116.540,263.012 116.288,260.526 116.134 C 256.070 115.857,143.454 115.755,138.400 116.023 M258.939 116.786 C 260.885 116.991,262.878 117.421,263.368 117.742 C 263.857 118.063,265.055 118.552,266.029 118.830 C 267.003 119.107,268.340 119.728,269.000 120.209 C 269.660 120.691,270.593 121.209,271.074 121.361 C 272.291 121.746,278.243 128.123,279.267 130.139 C 279.731 131.053,280.445 132.229,280.855 132.754 C 281.265 133.279,281.600 134.128,281.600 134.642 C 281.600 135.155,282.050 136.954,282.600 138.639 L 283.600 141.702 283.600 201.588 C 283.600 259.953,283.580 261.532,282.819 263.745 C 282.389 264.994,281.849 267.036,281.619 268.282 C 281.388 269.529,280.869 270.920,280.465 271.374 C 280.060 271.828,279.490 272.806,279.197 273.546 C 278.126 276.254,270.603 283.140,267.533 284.224 C 266.587 284.557,265.360 285.139,264.807 285.515 C 263.869 286.153,259.473 286.207,200.232 286.305 L 136.664 286.410 135.032 285.556 C 134.134 285.087,132.545 284.448,131.500 284.136 C 130.455 283.824,129.600 283.400,129.600 283.193 C 129.600 282.986,128.898 282.458,128.041 282.021 C 125.065 280.503,119.953 275.084,118.586 272.000 C 118.245 271.230,117.478 269.610,116.883 268.400 L 115.800 266.200 115.800 201.600 L 115.800 137.000 117.100 134.368 C 117.815 132.921,118.400 131.595,118.400 131.422 C 118.400 128.633,127.324 120.221,131.800 118.790 C 132.680 118.509,133.827 118.001,134.349 117.662 C 134.870 117.322,136.580 116.926,138.149 116.781 C 142.674 116.363,254.959 116.368,258.939 116.786 " stroke="none" fill="#94b4d5" fill-rule="evenodd"></path><path id="path4" d="M70.000 3.068 C 69.230 3.149,67.160 3.569,65.400 4.002 C 63.640 4.435,60.499 4.965,58.420 5.179 C 55.749 5.454,54.327 5.799,53.574 6.356 C 52.989 6.789,51.810 7.265,50.955 7.413 C 48.736 7.798,39.752 11.993,37.717 13.594 C 37.153 14.037,36.449 14.400,36.153 14.400 C 35.856 14.400,35.116 14.854,34.507 15.409 C 33.898 15.964,32.410 17.147,31.200 18.039 C 28.734 19.856,26.549 21.577,25.860 22.245 C 24.053 23.997,19.497 28.994,18.553 30.260 C 17.921 31.107,17.177 31.945,16.900 32.121 C 16.622 32.298,16.032 33.153,15.589 34.021 C 15.146 34.890,14.610 35.600,14.397 35.600 C 14.185 35.600,13.743 36.240,13.416 37.023 C 13.089 37.806,12.469 38.942,12.037 39.548 C 11.606 40.153,11.134 41.125,10.987 41.708 C 10.841 42.291,10.476 42.971,10.176 43.220 C 9.876 43.469,9.250 44.691,8.785 45.936 C 8.319 47.181,7.705 48.470,7.420 48.800 C 7.135 49.130,6.776 50.120,6.623 51.000 C 6.470 51.880,5.920 53.539,5.401 54.686 C 4.821 55.968,4.281 58.281,4.001 60.686 C 3.724 63.074,3.206 65.302,2.673 66.400 L 1.800 68.200 1.800 201.200 L 1.800 334.200 2.677 336.000 C 3.247 337.170,3.712 339.261,4.005 341.970 C 4.266 344.389,4.762 346.742,5.186 347.573 C 5.588 348.360,6.118 349.813,6.365 350.802 C 6.611 351.791,7.152 353.320,7.566 354.200 C 10.222 359.845,11.500 362.346,12.269 363.402 C 12.751 364.063,13.342 365.053,13.583 365.602 C 15.208 369.309,23.400 378.585,28.594 382.600 C 29.448 383.260,30.644 384.272,31.253 384.849 C 32.408 385.944,39.320 390.221,41.385 391.118 C 42.040 391.402,42.852 391.881,43.188 392.181 C 43.525 392.480,44.610 392.933,45.600 393.187 C 46.590 393.441,47.891 394.000,48.490 394.429 C 49.090 394.859,50.900 395.462,52.513 395.771 C 54.125 396.079,56.154 396.688,57.022 397.124 C 60.427 398.835,64.461 398.878,202.800 398.681 C 332.992 398.496,338.150 398.436,340.800 397.065 C 341.570 396.667,343.522 396.084,345.137 395.770 C 346.753 395.456,348.526 394.844,349.078 394.410 C 349.630 393.976,350.738 393.509,351.541 393.373 C 352.343 393.237,353.450 392.810,354.000 392.425 C 354.550 392.040,355.810 391.334,356.800 390.857 C 357.790 390.379,359.590 389.367,360.800 388.607 C 362.010 387.847,363.450 386.998,364.000 386.719 C 364.550 386.441,365.471 385.760,366.048 385.206 C 366.624 384.653,368.063 383.480,369.246 382.600 C 372.035 380.526,377.567 374.974,379.178 372.633 C 379.871 371.625,380.569 370.800,380.728 370.800 C 380.888 370.800,381.357 370.170,381.772 369.400 C 382.187 368.630,382.674 368.000,382.855 368.000 C 383.036 368.000,383.568 367.235,384.037 366.300 C 384.506 365.365,385.209 364.240,385.599 363.800 C 385.989 363.360,386.437 362.576,386.594 362.059 C 386.751 361.541,387.312 360.481,387.840 359.703 C 388.368 358.925,388.800 358.088,388.800 357.844 C 388.800 357.600,389.333 356.410,389.984 355.200 C 390.635 353.990,391.175 352.532,391.184 351.960 C 391.193 351.387,391.633 350.106,392.161 349.112 C 392.690 348.117,393.324 346.001,393.571 344.409 C 393.819 342.816,394.376 340.458,394.810 339.169 C 396.040 335.518,395.905 334.091,394.300 333.802 C 390.575 333.129,294.207 333.795,293.211 334.500 C 291.797 335.501,106.919 335.596,102.479 334.598 C 101.006 334.266,98.267 333.843,96.393 333.657 C 93.953 333.414,92.420 333.017,90.996 332.259 C 89.902 331.677,88.730 331.200,88.392 331.200 C 86.515 331.200,78.287 324.718,75.332 320.911 C 71.740 316.285,71.250 315.537,70.973 314.267 C 70.821 313.570,70.295 312.521,69.805 311.936 C 69.270 311.299,68.801 310.033,68.635 308.778 C 68.482 307.626,67.962 305.945,67.479 305.042 L 66.600 303.400 66.600 201.600 L 66.600 99.800 67.455 98.353 C 67.925 97.557,68.440 95.966,68.598 94.817 C 69.244 90.119,76.159 79.691,80.647 76.646 C 81.333 76.181,82.988 75.050,84.324 74.134 C 85.660 73.218,87.152 72.342,87.641 72.187 C 88.129 72.032,89.624 71.387,90.964 70.753 C 92.304 70.119,93.956 69.600,94.636 69.600 C 95.316 69.600,97.280 69.240,99.000 68.800 C 103.889 67.550,294.527 67.541,299.227 68.791 C 300.862 69.225,302.813 69.585,303.561 69.591 C 304.310 69.596,306.065 70.140,307.462 70.800 C 308.859 71.460,310.244 72.000,310.539 72.000 C 310.834 72.000,311.398 72.355,311.791 72.790 C 312.184 73.224,312.887 73.695,313.353 73.837 C 316.508 74.794,324.716 83.068,326.498 87.086 C 326.770 87.699,327.378 88.779,327.849 89.486 C 328.320 90.194,328.830 91.454,328.982 92.286 C 329.134 93.119,329.740 94.790,330.329 96.000 L 331.400 98.200 331.504 181.400 C 331.561 227.160,331.608 264.960,331.610 265.400 C 331.616 267.277,330.420 267.209,363.795 267.217 C 389.001 267.223,395.404 267.122,395.670 266.712 C 395.852 266.431,395.956 220.660,395.900 165.000 L 395.798 63.800 394.894 61.425 C 394.398 60.118,393.803 57.868,393.574 56.425 C 393.344 54.981,392.804 53.200,392.373 52.468 C 391.942 51.735,391.405 50.295,391.181 49.268 C 390.956 48.240,390.427 46.923,390.004 46.340 C 389.581 45.757,389.114 44.767,388.965 44.140 C 388.817 43.513,388.278 42.440,387.769 41.755 C 387.259 41.070,386.727 40.048,386.585 39.484 C 386.444 38.920,385.989 38.152,385.574 37.777 C 385.159 37.401,384.440 36.308,383.974 35.347 C 383.509 34.386,382.969 33.600,382.775 33.600 C 382.580 33.600,382.163 33.105,381.849 32.500 C 379.857 28.664,364.602 14.400,362.492 14.400 C 362.255 14.400,361.552 13.995,360.929 13.500 C 359.039 11.998,350.195 7.817,348.000 7.387 C 347.230 7.237,346.021 6.762,345.314 6.333 C 344.466 5.818,342.722 5.418,340.198 5.160 C 338.091 4.944,335.250 4.373,333.884 3.891 L 331.400 3.014 201.400 2.968 C 129.900 2.943,70.770 2.988,70.000 3.068 M327.874 3.643 C 330.026 4.489,334.226 5.230,338.613 5.538 C 342.206 5.790,343.247 6.010,344.213 6.720 C 344.866 7.200,346.480 7.800,347.800 8.054 C 349.120 8.307,350.560 8.826,351.000 9.207 C 351.440 9.588,352.731 10.202,353.869 10.572 C 355.007 10.941,356.154 11.504,356.418 11.822 C 356.682 12.140,357.125 12.400,357.403 12.400 C 358.104 12.400,359.743 13.286,360.569 14.111 C 360.947 14.490,361.598 14.800,362.014 14.800 C 362.431 14.800,362.964 15.159,363.199 15.599 C 363.434 16.038,364.296 16.764,365.113 17.213 C 367.306 18.416,369.637 20.166,370.065 20.930 C 370.271 21.298,370.705 21.600,371.028 21.600 C 371.352 21.600,371.813 22.030,372.053 22.556 C 372.292 23.082,372.918 23.708,373.444 23.947 C 373.970 24.187,374.400 24.556,374.400 24.767 C 374.400 24.978,375.435 26.210,376.700 27.503 C 379.933 30.809,381.200 32.271,381.200 32.692 C 381.200 32.892,381.830 33.792,382.600 34.692 C 383.370 35.591,384.000 36.586,384.000 36.902 C 384.000 37.218,384.344 37.787,384.763 38.167 C 385.183 38.547,385.752 39.430,386.028 40.129 C 386.304 40.828,386.830 41.760,387.197 42.200 C 387.564 42.640,388.073 43.736,388.329 44.635 C 388.584 45.534,389.132 46.660,389.545 47.137 C 389.959 47.614,390.416 48.896,390.560 49.985 C 390.730 51.261,391.199 52.413,391.880 53.222 C 392.747 54.252,392.991 55.061,393.243 57.739 C 393.412 59.532,393.960 62.260,394.462 63.800 L 395.375 66.600 395.504 166.300 C 395.609 247.528,395.537 266.004,395.116 266.022 C 392.320 266.144,332.283 266.016,332.155 265.889 C 332.061 265.795,331.977 229.736,331.968 185.759 C 331.951 97.503,331.926 96.136,330.288 93.661 C 329.690 92.757,329.200 91.542,329.200 90.960 C 329.200 90.379,328.735 89.160,328.166 88.252 C 327.598 87.343,326.539 85.649,325.813 84.486 C 324.347 82.137,321.050 78.400,320.444 78.400 C 320.230 78.400,319.949 78.069,319.820 77.664 C 319.692 77.259,319.110 76.674,318.527 76.364 C 317.944 76.054,316.971 75.305,316.364 74.700 C 315.758 74.095,314.919 73.600,314.500 73.600 C 314.082 73.600,313.314 73.147,312.794 72.593 C 312.274 72.040,311.117 71.379,310.224 71.124 C 309.331 70.870,308.311 70.419,307.958 70.122 C 307.605 69.824,305.985 69.306,304.358 68.970 C 302.731 68.634,300.512 68.099,299.427 67.780 C 295.827 66.722,101.735 66.929,98.336 67.995 C 96.941 68.432,95.337 68.792,94.771 68.795 C 93.484 68.801,90.000 69.966,90.000 70.390 C 90.000 70.563,89.205 70.905,88.234 71.150 C 87.263 71.394,85.958 72.021,85.334 72.542 C 84.710 73.064,83.800 73.616,83.310 73.769 C 82.821 73.922,82.094 74.462,81.695 74.970 C 81.296 75.477,80.609 76.007,80.167 76.147 C 79.726 76.287,78.334 77.526,77.073 78.901 C 73.872 82.392,73.733 82.570,72.808 84.383 C 72.355 85.273,71.820 86.000,71.619 86.000 C 71.418 86.000,71.126 86.403,70.970 86.895 C 70.814 87.387,70.227 88.484,69.665 89.332 C 69.027 90.297,68.542 91.740,68.372 93.186 C 68.198 94.659,67.754 95.964,67.150 96.783 L 66.200 98.067 66.200 201.600 L 66.200 305.133 67.107 306.359 C 67.605 307.034,68.119 308.444,68.247 309.493 C 68.376 310.542,68.793 311.850,69.173 312.400 C 69.554 312.950,70.190 314.255,70.587 315.300 C 70.984 316.345,71.431 317.200,71.581 317.200 C 71.730 317.200,72.234 317.878,72.699 318.706 C 73.165 319.535,74.008 320.750,74.572 321.406 C 75.137 322.063,75.599 322.701,75.600 322.824 C 75.600 322.947,76.815 324.073,78.300 325.325 C 79.785 326.578,81.270 327.841,81.600 328.133 C 82.759 329.157,87.112 331.600,87.779 331.600 C 88.150 331.600,89.065 332.066,89.812 332.636 C 90.944 333.500,91.794 333.725,94.936 333.994 C 97.490 334.213,99.066 334.556,99.833 335.059 C 100.926 335.775,104.262 335.804,196.980 335.903 L 292.995 336.007 294.197 335.103 L 295.400 334.200 345.000 334.200 L 394.600 334.200 394.720 335.037 C 394.785 335.498,394.552 336.668,394.201 337.637 C 393.851 338.607,393.405 341.106,393.211 343.190 C 393.017 345.275,392.662 347.046,392.421 347.126 C 391.712 347.363,390.898 349.264,390.591 351.405 C 390.434 352.502,389.966 353.771,389.553 354.225 C 389.140 354.679,388.531 355.962,388.199 357.077 C 387.868 358.192,387.346 359.313,387.038 359.568 C 386.730 359.824,386.363 360.491,386.223 361.052 C 386.082 361.612,385.531 362.541,384.998 363.116 C 384.464 363.691,383.917 364.665,383.782 365.281 C 383.647 365.896,383.385 366.400,383.201 366.400 C 383.016 366.400,382.449 367.075,381.941 367.900 C 381.432 368.725,380.520 369.940,379.914 370.600 C 379.308 371.260,377.577 373.240,376.066 375.000 C 374.555 376.760,372.537 378.830,371.581 379.600 C 370.624 380.370,369.260 381.585,368.548 382.300 C 367.836 383.015,367.115 383.600,366.946 383.600 C 366.777 383.600,366.090 384.120,365.419 384.755 C 364.749 385.390,362.909 386.570,361.330 387.378 C 359.752 388.185,358.246 389.104,357.984 389.420 C 357.721 389.736,356.834 390.175,356.012 390.397 C 355.190 390.618,354.032 391.249,353.438 391.800 C 352.845 392.350,351.930 392.800,351.405 392.800 C 350.131 392.800,348.382 393.489,347.400 394.377 C 346.902 394.828,345.629 395.206,344.029 395.378 C 342.616 395.531,340.804 395.990,340.004 396.398 C 336.940 397.961,333.731 397.997,198.800 397.997 C 63.869 397.997,60.660 397.961,57.596 396.398 C 56.796 395.990,54.984 395.531,53.571 395.378 C 51.971 395.206,50.698 394.828,50.200 394.377 C 49.218 393.489,47.469 392.800,46.195 392.800 C 45.670 392.800,44.765 392.358,44.182 391.818 C 43.599 391.278,42.465 390.626,41.661 390.369 C 40.858 390.112,39.840 389.609,39.400 389.251 C 38.458 388.484,37.265 387.771,34.800 386.498 C 33.810 385.987,32.640 385.221,32.200 384.795 C 31.760 384.370,30.594 383.343,29.609 382.511 C 25.352 378.919,16.456 369.446,15.882 367.893 C 15.705 367.415,15.119 366.446,14.580 365.739 C 14.041 365.032,13.600 364.289,13.600 364.089 C 13.600 363.888,13.268 363.423,12.861 363.056 C 12.455 362.688,11.917 361.699,11.665 360.859 C 11.413 360.018,10.845 359.003,10.403 358.603 C 9.962 358.203,9.599 357.679,9.598 357.438 C 9.592 356.315,8.688 353.925,8.032 353.297 C 7.612 352.897,7.115 351.517,6.863 350.053 C 6.621 348.652,6.032 346.852,5.554 346.053 C 4.868 344.908,4.616 343.625,4.367 340.000 C 4.031 335.130,3.550 332.638,2.589 330.778 C 1.825 329.300,1.681 72.879,2.444 72.116 C 3.187 71.373,4.008 67.253,4.380 62.400 C 4.665 58.676,4.922 57.457,5.728 56.000 C 6.275 55.010,6.845 53.269,6.995 52.132 C 7.158 50.892,7.568 49.791,8.019 49.383 C 8.433 49.008,9.053 47.734,9.397 46.551 C 9.741 45.368,10.176 44.400,10.365 44.400 C 10.553 44.400,11.106 43.417,11.594 42.216 C 12.081 41.014,12.714 39.837,13.001 39.599 C 13.287 39.362,13.642 38.680,13.789 38.084 C 13.937 37.488,14.474 36.550,14.984 36.000 C 15.493 35.450,16.024 34.622,16.163 34.161 C 16.302 33.699,16.862 33.118,17.408 32.869 C 17.953 32.621,18.400 32.244,18.400 32.033 C 18.400 30.986,25.130 23.858,28.999 20.807 C 32.531 18.023,32.997 17.634,34.321 16.364 C 34.916 15.794,36.059 15.111,36.862 14.845 C 37.665 14.580,38.799 13.922,39.382 13.382 C 39.965 12.842,40.692 12.400,40.999 12.400 C 41.306 12.400,42.404 11.950,43.438 11.400 C 44.473 10.850,45.537 10.400,45.804 10.400 C 46.070 10.400,46.936 9.961,47.728 9.423 C 48.519 8.886,50.200 8.256,51.464 8.022 C 52.727 7.789,54.400 7.168,55.180 6.644 C 56.375 5.841,57.264 5.655,60.800 5.467 C 65.017 5.243,70.312 4.327,71.541 3.609 C 72.532 3.031,326.402 3.064,327.874 3.643 M134.600 118.188 C 133.500 118.731,132.341 119.181,132.024 119.187 C 129.866 119.234,122.314 125.433,120.801 128.399 C 120.392 129.199,119.775 130.089,119.429 130.376 C 119.083 130.663,118.800 131.218,118.800 131.608 C 118.800 131.999,118.215 133.372,117.500 134.659 L 116.200 137.000 116.074 198.000 C 115.940 262.855,116.003 266.619,117.239 268.045 C 117.659 268.529,118.183 269.593,118.402 270.409 C 118.622 271.225,119.341 272.571,120.001 273.401 C 120.660 274.231,121.200 275.044,121.200 275.208 C 121.200 276.635,129.891 283.226,132.796 284.003 C 133.784 284.267,135.134 284.869,135.796 285.341 L 137.000 286.200 199.600 286.200 L 262.200 286.200 263.600 285.339 C 264.370 284.865,265.810 284.246,266.800 283.963 C 268.562 283.459,269.342 282.970,272.615 280.316 C 274.710 278.616,278.373 274.302,279.293 272.451 C 279.689 271.653,280.269 270.550,280.581 270.000 C 282.582 266.473,282.578 266.595,282.695 202.011 C 282.789 150.709,282.720 141.526,282.232 139.811 C 281.916 138.705,281.534 136.900,281.381 135.800 C 281.229 134.700,280.775 133.438,280.371 132.995 C 279.968 132.552,279.366 131.537,279.033 130.741 C 278.173 128.682,271.661 121.628,270.600 121.605 C 270.380 121.600,269.390 121.058,268.400 120.400 C 267.410 119.742,266.233 119.203,265.785 119.202 C 265.336 119.201,264.256 118.795,263.385 118.300 L 261.800 117.400 199.200 117.301 L 136.600 117.202 134.600 118.188 M261.603 118.551 C 262.591 119.074,264.000 119.632,264.734 119.790 C 268.137 120.526,272.302 123.327,275.371 126.946 C 275.956 127.636,276.877 128.721,277.417 129.358 C 277.958 129.996,278.400 130.868,278.400 131.298 C 278.400 131.728,278.907 132.556,279.527 133.140 C 281.565 135.056,281.600 136.225,281.600 201.600 C 281.600 263.469,281.487 268.302,280.010 269.617 C 279.133 270.397,278.400 271.755,278.400 272.599 C 278.400 272.958,277.958 273.735,277.418 274.326 C 273.969 278.100,271.234 280.800,270.861 280.800 C 270.623 280.800,269.837 281.312,269.114 281.937 C 268.391 282.563,266.900 283.296,265.800 283.567 C 264.700 283.839,263.170 284.452,262.400 284.930 L 261.000 285.800 199.590 285.800 L 138.180 285.800 137.066 284.923 C 136.453 284.441,134.927 283.837,133.676 283.580 C 132.424 283.323,131.080 282.774,130.688 282.361 C 130.297 281.947,129.432 281.327,128.767 280.983 C 128.102 280.639,127.227 280.052,126.823 279.679 C 123.861 276.942,122.974 276.032,122.072 274.800 C 121.507 274.030,120.649 272.950,120.165 272.400 C 119.681 271.850,119.159 270.770,119.006 270.000 C 118.852 269.230,118.248 267.880,117.663 267.000 L 116.600 265.400 116.600 201.600 L 116.600 137.800 117.679 136.275 C 118.273 135.436,118.879 133.946,119.026 132.964 C 119.203 131.784,119.561 131.035,120.081 130.757 C 120.514 130.525,121.112 129.750,121.412 129.034 C 121.711 128.318,122.505 127.143,123.178 126.424 C 123.850 125.704,124.400 124.954,124.400 124.758 C 124.400 124.561,124.601 124.400,124.847 124.400 C 125.093 124.400,125.890 123.905,126.618 123.300 C 128.752 121.527,130.860 120.341,133.000 119.711 C 134.100 119.387,135.270 118.893,135.600 118.613 C 135.930 118.333,136.470 118.005,136.800 117.884 C 137.130 117.762,164.941 117.649,198.603 117.632 L 259.806 117.600 261.603 118.551 " stroke="none" fill="#5484c4" fill-rule="evenodd"></path></g></svg>